<svg id="Layer_1" data-name="Layer 1" xmlns="http://www.w3.org/2000/svg" viewBox="0 0 360.79 260.18"><title>webLogo</title><path d="M294.49,250.49l34.81,13.37,4.85,6.85,10.66,8.1,29.8,0L367,272.32H359l-11.55-6.93-10.31-9.57,0.15-3.18-10.8-22.37-14,17.2-18,3h0ZM70.28,263.77l-0.67-.15L109,252.16l-12,13,12,0.65,23.61-12.77,21.79-3,21.09-15.22,24.12-20.23,28.95-16.54L199,190l-5.19-17.39-22.2-12.8-54.08-.07,13.92-16.51h88.27l1-1.2,34-40.39,3.46,2.84,3.29,14.27-7.76,9.72a8.88,8.88,0,0,0-4.61-.72h0a8.85,8.85,0,0,0,2,17.58h0A8.83,8.83,0,0,0,257,142a8.92,8.92,0,0,0,1-9.47l9.86-12.36-4.39-19.08L196.91,46.26a8.83,8.83,0,0,0-9.29-11.84h0a8.87,8.87,0,0,0-7.17,5.38H91.22l0,0L25.93,18.65l164.56,0.42L292.9,104.52l18,1.28L288.2,122.91l-25.67,32.93,8.51,27,9.11-5.62,7.19-28.28L304,124.23l19.93-10.95-2.46-13.23,41.85,20.72,9.88,13.68h-4.31L361.36,129l-6,4.5,19.22,5.68,11,11.51,1.13,10.48-27.12-3.79-14.91-9.78,3.59-4.62-9.55-3-13,10.8,7.28,42.41-6.57,29.18L310,242.34l-6.62,1.93,13.51-24L308.78,200l-26.77.31-30.13,31.47-6.39,21.65-7.65,1.2-6.1-26-15.81-12.38-17.76,4.55-8.1,17.79,6.83,16.3,5.57,2.18,0.54,0.85-5,6.57,3,6.7v5.39l5.14,2.24h-9l-7.58-4.23v-4.07l-1.34-5.35,3.18-4.3L160,268.81h0l-29.36-1.72-24.4,9.76L69.11,263.71l1.17,0.05h0Zm215.33,15.06H261.88l-8-4.16,0-5.05-5.32-6.27,2.17-9.93,6.2-18.72,27.23-28.21,20.83-.33,5.89,14.27L298.33,240.8l-11,3.86-8,1.28-13.69,10-1.19,6.55,9.07,9.77h6.35l5.83,6.51h0Zm4.13-63.54a8.84,8.84,0,1,0,8.84,8.83,8.85,8.85,0,0,0-8.84-8.83h0Zm0,5.88a3,3,0,1,0,2.95,3,3,3,0,0,0-2.95-3h0Zm-57.47,34.9-1.66,3.5-14.83,6.86,6.1,6h7.55l6.82,6.45H213.41l-7.57-4.25v-4l-2.38-5.35,5.78-7.8L207,253.86l-6.64-3.16-4.45-11.89,5.52-12.61,13.4-3.76,10.95,8.36,6.45,25.28h0Zm-20.2-25.39a8.84,8.84,0,1,0,8.84,8.85,8.86,8.86,0,0,0-8.84-8.85h0Zm0,5.89a2.95,2.95,0,1,0,3,3,2.95,2.95,0,0,0-3-3h0ZM147,98.17L179.19,98a8.85,8.85,0,0,0,13.24,5,9,9,0,0,0,3.47-10.78l3.75-4.87c0.26,0.08.53,0.16,0.78,0.22h0A8.83,8.83,0,0,0,211,80.88h0a8.82,8.82,0,0,0-6.7-10.56h0A8.85,8.85,0,0,0,193.75,77v0A8.89,8.89,0,0,0,195,83.8l-3.08,4a8.39,8.39,0,0,0-2.26-.83h0a8.87,8.87,0,0,0-10.06,5.19L147,92.29A8.84,8.84,0,0,0,134,87.74,8.84,8.84,0,1,0,147,98.17h0ZM96.4,46.55l7.43,9.72h49.49l8.42-9.72H96.4ZM105.18,63L103,69h77L194.84,52.2l-1.7-1.4a8.92,8.92,0,0,1-10-.68,8.69,8.69,0,0,1-2.65-3.57h-9.8L157.41,61.86l-1,1.18h-51.2Zm-4.62,12.7-2.7,7.4-20.53,9.4,29.09,4.27,23.5,14.52h66.72l28.64-34.05L200.06,56.51,184.13,74.59l-1,1.15H100.56Zm35,42.36,0.12,5.93h70.5L237.31,87.2l-6.81-5.6-29.68,35.3-1,1.2H135.56Zm0.25,12.7,0.11,5.63h80.65l33-39.14-7-5.78-32.19,38.1-1,1.2H135.81Zm72,38.68,5.42,16.16,33.81,8.9a8.86,8.86,0,0,0,6.91,7.9h0a8.73,8.73,0,0,0,6.62-1.21,8.81,8.81,0,1,0-12.06-12.34l-30.66-8.31-4.35-12.41a8.89,8.89,0,0,0,4.1-7.21,8.77,8.77,0,0,0-2.43-6.29h0a8.7,8.7,0,0,0-6.15-2.73,8.8,8.8,0,0,0-1.21,17.54h0Zm46.4,21.9a3,3,0,0,1,2.21-.42h0a3.05,3.05,0,0,1,1.85,1.28,2.94,2.94,0,0,1-3.08,4.48h0a2.93,2.93,0,0,1-1-5.32h0ZM208.84,157.8a2.94,2.94,0,1,1-3,2.87,2.94,2.94,0,0,1,3-2.87h0ZM186.31,41.36a3,3,0,0,1,2-1.09h0a2.95,2.95,0,1,1-2,1.09h0Zm61.51,93.29a2.93,2.93,0,0,1,2-1.09h0a2.86,2.86,0,0,1,2.16.62,2.94,2.94,0,0,1-1.49,5.24h0a2.93,2.93,0,0,1-2.62-4.76h0ZM136.21,96.79a3,3,0,0,1-.4-2.22h0a3,3,0,0,1,1.3-1.84,2.94,2.94,0,1,1-.91,4.06h0Zm63.68-16.25a2.93,2.93,0,0,1-.4-2.22v0a2.9,2.9,0,0,1,1.29-1.83,2.94,2.94,0,0,1,2.23-.4h0a3,3,0,0,1,2.24,3.51h0a2.9,2.9,0,0,1-1.31,1.85,2.93,2.93,0,0,1-4.05-.9h0ZM185.2,97.11a2.94,2.94,0,1,1,4.07.92,2.95,2.95,0,0,1-4.07-.92h0Z" transform="translate(-25.93 -18.65)" style="fill:#fff;fill-rule:evenodd"/></svg>